<svg xmlns="http://www.w3.org/2000/svg" width="24" height="24" fill="none" stroke="#fdfdfd" stroke-width="2" stroke-linecap="round" stroke-linejoin="round" class="icon icon-tabler icons-tabler-outline icon-tabler-vector-bezier"><path d="M0 0h24v24H0z" stroke="none"/><path d="M3 15a1 1 0 011-1h2a1 1 0 011 1v2a1 1 0 01-1 1H4a1 1 0 01-1-1zm14 0a1 1 0 011-1h2a1 1 0 011 1v2a1 1 0 01-1 1h-2a1 1 0 01-1-1zm-7-8a1 1 0 011-1h2a1 1 0 011 1v2a1 1 0 01-1 1h-2a1 1 0 01-1-1zm0 1.5A6 6 0 005 14m9-5.5a6 6 0 015 5.5m-9-6H4m16 0h-6M2 8a1 1 0 102 0 1 1 0 10-2 0m18 0a1 1 0 102 0 1 1 0 10-2 0"/></svg>